<svg aria-hidden="true" style="position: absolute; width: 0; height: 0; overflow: hidden;" version="1.1" xmlns="http://www.w3.org/2000/svg" xmlns:xlink="http://www.w3.org/1999/xlink">
<defs>

	<symbol id="" viewBox="0 0 512 512">
		<g></g>
	</symbol>

	<symbol id="icon-close" viewBox="0 0 20 21">
		<path d="M0.6,18.26l1.41,1.41l17.68,-17.67l-1.41,-1.41z" />
		<path d="M0.6,2.71l17.68,17.67l1.41,-1.41l-17.68,-17.67z" />
	</symbol>
	<symbol id="calc" viewBox="0 0 512 512">
	<g>
		<g>
			<g>
				<circle cx="138" cy="324" r="20"/>
				<circle cx="138" cy="424" r="20"/>
				<path d="M100,394h76c11.046,0,20-8.954,20-20c0-11.046-8.954-20-20-20h-76c-11.046,0-20,8.954-20,20
					C80,385.046,88.954,394,100,394z"/>
				<path d="M100,158h18v18c0,11.046,8.954,20,20,20s20-8.954,20-20v-18h18c11.046,0,20-8.954,20-20s-8.954-20-20-20h-18v-18
					c0-11.046-8.954-20-20-20s-20,8.954-20,20v18h-18c-11.046,0-20,8.954-20,20S88.954,158,100,158z"/>
				<path d="M492,352c11.046,0,20-8.954,20-20V80c0-44.112-35.888-80-80-80H80C35.888,0,0,35.888,0,80v352c0,44.112,35.888,80,80,80
					h352c44.112,0,80-35.888,80-80c0-11.046-8.954-20-20-20c-11.046,0-20,8.954-20,20c0,22.056-17.944,40-40,40H276V277h196v55
					C472,343.046,480.954,352,492,352z M236,472H80c-22.056,0-40-17.944-40-40V277h196V472z M236,237H40V80c0-22.056,17.944-40,40-40
					h156V237z M276,237V40h156c22.056,0,40,17.944,40,40v157H276z"/>
				<path d="M417.602,330.516c-7.81-7.809-20.473-7.809-28.284,0l-15.358,15.358l-15.358-15.358c-7.81-7.809-20.473-7.809-28.284,0
					c-7.811,7.81-7.811,20.474,0,28.285l15.357,15.357l-15.357,15.357c-7.811,7.81-7.811,20.474,0,28.285
					c3.905,3.904,9.023,5.857,14.142,5.857c5.119,0,10.237-1.953,14.142-5.857l15.358-15.358l15.358,15.358
					c3.905,3.904,9.023,5.857,14.142,5.857c5.119,0,10.237-1.953,14.142-5.857c7.811-7.81,7.811-20.474,0-28.285l-15.357-15.357
					l15.357-15.357C425.413,350.99,425.413,338.326,417.602,330.516z"/>
				<path d="M412,118h-76c-11.046,0-20,8.954-20,20s8.954,20,20,20h76c11.046,0,20-8.954,20-20S423.046,118,412,118z"/>
			</g>
		</g>
	</g>
	</symbol>
	<symbol id="whatsapp" viewBox="-23 -21 682 682.66669">
		<path d="m544.386719 93.007812c-59.875-59.945312-139.503907-92.9726558-224.335938-93.007812-174.804687 0-317.070312 142.261719-317.140625 317.113281-.023437 55.894531 14.578125 110.457031 42.332032 158.550781l-44.992188 164.335938 168.121094-44.101562c46.324218 25.269531 98.476562 38.585937 151.550781 38.601562h.132813c174.785156 0 317.066406-142.273438 317.132812-317.132812.035156-84.742188-32.921875-164.417969-92.800781-224.359376zm-224.335938 487.933594h-.109375c-47.296875-.019531-93.683594-12.730468-134.160156-36.742187l-9.621094-5.714844-99.765625 26.171875 26.628907-97.269531-6.269532-9.972657c-26.386718-41.96875-40.320312-90.476562-40.296875-140.28125.054688-145.332031 118.304688-263.570312 263.699219-263.570312 70.40625.023438 136.589844 27.476562 186.355469 77.300781s77.15625 116.050781 77.132812 186.484375c-.0625 145.34375-118.304687 263.59375-263.59375 263.59375zm144.585938-197.417968c-7.921875-3.96875-46.882813-23.132813-54.148438-25.78125-7.257812-2.644532-12.546875-3.960938-17.824219 3.96875-5.285156 7.929687-20.46875 25.78125-25.09375 31.066406-4.625 5.289062-9.242187 5.953125-17.167968 1.984375-7.925782-3.964844-33.457032-12.335938-63.726563-39.332031-23.554687-21.011719-39.457031-46.960938-44.082031-54.890626-4.617188-7.9375-.039062-11.8125 3.476562-16.171874 8.578126-10.652344 17.167969-21.820313 19.808594-27.105469 2.644532-5.289063 1.320313-9.917969-.664062-13.882813-1.976563-3.964844-17.824219-42.96875-24.425782-58.839844-6.4375-15.445312-12.964843-13.359374-17.832031-13.601562-4.617187-.230469-9.902343-.277344-15.1875-.277344-5.28125 0-13.867187 1.980469-21.132812 9.917969-7.261719 7.933594-27.730469 27.101563-27.730469 66.105469s28.394531 76.683594 32.355469 81.972656c3.960937 5.289062 55.878906 85.328125 135.367187 119.648438 18.90625 8.171874 33.664063 13.042968 45.175782 16.695312 18.984374 6.03125 36.253906 5.179688 49.910156 3.140625 15.226562-2.277344 46.878906-19.171875 53.488281-37.679687 6.601563-18.511719 6.601563-34.375 4.617187-37.683594-1.976562-3.304688-7.261718-5.285156-15.183593-9.253906zm0 0" fill-rule="evenodd"/>
	</symbol>
	<symbol id="chat" viewBox="0 0 477.867 477.867">
		<g>
		<g>
			<path d="M426.667,0.002H51.2C22.923,0.002,0,22.925,0,51.202v273.067c0,28.277,22.923,51.2,51.2,51.2h60.587l-9.284,83.456
				c-1.035,9.369,5.721,17.802,15.09,18.837c4.838,0.534,9.674-1.023,13.292-4.279l108.919-98.014h186.863
				c28.277,0,51.2-22.923,51.2-51.2V51.202C477.867,22.925,454.944,0.002,426.667,0.002z M443.733,324.269
				c0,9.426-7.641,17.067-17.067,17.067H233.25c-4.217,0.001-8.284,1.564-11.418,4.386l-80.452,72.414l6.434-57.839
				c1.046-9.367-5.699-17.809-15.067-18.856c-0.63-0.07-1.263-0.106-1.897-0.105H51.2c-9.426,0-17.067-7.641-17.067-17.067V51.202
				c0-9.426,7.641-17.067,17.067-17.067h375.467c9.426,0,17.067,7.641,17.067,17.067V324.269z"/>
		</g>
	</g>
	</symbol>
</defs>
</svg>